<?xml version="1.0" encoding="UTF-8"?>
<svg width="1200pt" height="1200pt" version="1.1" viewBox="0 0 1200 1200" xmlns="http://www.w3.org/2000/svg">
 <g>
  <path d="m445.3 733.82c3.4922 6.5273 6.9258 12.348 9.0977 15.984-3.1562-5.2305-6.0977-10.586-8.9531-15.984z"/>
  <path d="m456.74 753.65h0.070312c-0.57422-0.94922-1.1992-1.8242-1.7656-2.7734 1.0508 1.7305 1.6953 2.7734 1.6953 2.7734z"/>
  <path d="m621.74 881.34c-7.5703-2.3633-14.988-5.0898-22.273-8.0273-0.035156 0.023438-0.085938 0.035156-0.10938 0.046875 0.72656 0.30078 9.375 3.8867 22.383 7.9805z"/>
  <path d="m626.71 882.84c0.023437 0 0.058593-0.023438 0.085937-0.035156-1.2734-0.35938-2.5547-0.68359-3.8164-1.0938 1.2109 0.39844 2.4609 0.78125 3.7305 1.1289z"/>
  <path d="m893.5 299.46h-181.64c-15.684 0-31.094 1.1992-46.141 3.5156-3.2773 0.50391-6.4922 1.2109-9.7305 1.8125 55.754 31.992 101.63 79.262 131.84 136.12h115.01c87.863 0 159.09 71.242 159.09 159.11 0 87.852-71.23 159.1-159.09 159.1h-198.67c-39.66 0-75.887-14.543-103.75-38.543 0 0-0.035156 0.035157-0.035156 0.035157 0-0.023438-0.011719-0.023438-0.023438-0.035157-5.9297-4.9688-10.633-9.625-14.473-13.777-8.3984-9.168-12.133-15.637-12.133-15.637 0.011718-0.023438 0.023437-0.023438 0.023437-0.035156-0.011719-0.011719-0.023437-0.023438-0.023437-0.035156-18.059-25.801-28.668-57.191-28.668-91.066 0-32.953 10.008-63.551 27.156-88.957 0.49219-0.71875 1.0312-1.4023 1.5234-2.1133-20.832-17.676-47.734-28.402-77.148-28.402h-60.492c-15.898 36.625-24.805 76.992-24.805 119.47 0 42.457 8.8438 82.836 24.73 119.46 2.9297 6.7305 6.1094 13.332 9.5039 19.812 2.8438 5.3984 5.7852 10.754 8.9531 15.984 0.23828 0.39453 0.43359 0.70703 0.64844 1.0547 0.5625 0.94922 1.1875 1.8242 1.7656 2.7734 33.504 53.555 83.375 95.762 142.66 119.68 7.2969 2.9414 14.711 5.6641 22.273 8.0273 0.40625 0.13281 0.81641 0.26562 1.2344 0.37109 1.2617 0.40625 2.543 0.73047 3.8164 1.0938 3.2383 0.96094 6.4922 1.9336 9.7812 2.7852 0.046875 0 0.070313 0.023437 0.12109 0.035156 24 6.1562 49.152 9.4453 75.047 9.4453h181.64c165.98 0 300.53-134.55 300.53-300.53 0.007813-165.98-134.54-300.55-300.52-300.55z"/>
  <path d="m306.5 900.54h181.64c15.695 0 31.105-1.2109 46.152-3.5273 3.2773-0.50391 6.5039-1.1992 9.7305-1.8125-55.754-31.98-101.64-79.246-131.84-136.11l-14.867 0.003906h-100.15c-87.863 0-159.09-71.23-159.09-159.11 0-87.863 71.219-159.09 159.09-159.09h198.66c39.648 0 75.875 14.543 103.74 38.543l0.023438-0.035156c0.011718 0.011719 0.011718 0.023438 0.023437 0.035156 5.9414 4.957 10.645 9.6133 14.473 13.777 8.4102 9.1445 12.133 15.625 12.133 15.625 0 0.011719-0.011719 0.023438-0.023438 0.035156 0.011719 0 0.023438 0.011719 0.035157 0.035157 18.059 25.801 28.68 57.191 28.68 91.055 0 32.953-10.02 63.562-27.168 88.945-0.49219 0.74219-1.0195 1.4141-1.5234 2.1133 20.832 17.688 47.746 28.43 77.148 28.43h60.504c15.887-36.637 24.781-77.004 24.781-119.48 0-42.469-8.8438-82.836-24.73-119.46-2.9297-6.7305-6.1094-13.332-9.5039-19.812-2.8438-5.4102-5.7852-10.777-8.9531-15.984-0.23828-0.39453-0.43359-0.71875-0.63672-1.0664-0.57422-0.9375-1.1875-1.8359-1.7656-2.7617-33.504-53.555-83.387-95.773-142.66-119.68-7.2969-2.9414-14.711-5.6523-22.273-8.0391-0.40625-0.13281-0.81641-0.25391-1.2344-0.38281-1.2617-0.38281-2.543-0.70703-3.8164-1.0664-3.2383-0.97266-6.4922-1.9453-9.793-2.7852-0.046874-0.011718-0.070312-0.011718-0.10937-0.023437-24-6.1797-49.141-9.457-75.059-9.457h-181.62c-165.98 0-300.53 134.54-300.53 300.53 0 166 134.54 300.55 300.53 300.55z"/>
  <path d="m636.7 885.64c-0.035156-0.011719-0.070312-0.035157-0.12109-0.035157 0.050781 0 0.085937 0.023438 0.12109 0.035157z"/>
  <path d="m621.74 881.34c0.40625 0.13281 0.81641 0.26562 1.2344 0.37109-0.40625-0.09375-0.8125-0.23828-1.2344-0.37109z"/>
  <path d="m573.66 685.69s3.7305 6.4688 12.133 15.637c0.058593-0.070313 0.12109-0.14453 0.19141-0.17969-4.4297-4.8828-8.5078-10.078-12.301-15.492 0 0.011719-0.011719 0.011719-0.023438 0.035156z"/>
  <path d="m455.04 750.86c-0.21484-0.34766-0.40625-0.66016-0.64844-1.0547 0.23047 0.35938 0.43359 0.69531 0.64844 1.0547z"/>
  <path d="m585.98 701.15c-0.070313 0.035156-0.13281 0.10937-0.19141 0.17969 3.8281 4.1641 8.5312 8.8086 14.473 13.777 0.011719-0.023438 0.023437-0.035157 0.023437-0.035157-5.043-4.3477-9.8398-8.9922-14.305-13.922z"/>
  <path d="m600.32 715.11c0.011719-0.035157 0.046875-0.070313 0.14453-0.17969-0.046875 0.046875-0.12109 0.097657-0.17969 0.14453 0.011719-0.003906 0.023438 0.007813 0.035157 0.035157z"/>
  <path d="m600.27 715.08h0.046875v0.046875h-0.046875z"/>
 </g>
</svg>
